<svg id="Layer_1" data-name="Layer 1" xmlns="http://www.w3.org/2000/svg" viewBox="0 0 648 549"><defs><style>.cls-1{fill:#55472e;}</style></defs><title>Artboard 1</title><path class="cls-1" d="M87.56,133.86q0,36.3,30.75,36.3a47.6,47.6,0,0,0,20.62-4.35,41.81,41.81,0,0,0,6.9-4q3.07-2.25,5.7-4.05a43.75,43.75,0,0,1,5.18-3.07,12.25,12.25,0,0,1,5.55-1.28,7.54,7.54,0,0,1,3.52.9,10.94,10.94,0,0,1,3.08,2.4l9.45,11.4a157.73,157.73,0,0,1-15.6,13.8,86.34,86.34,0,0,1-15.6,9.6,73.62,73.62,0,0,1-16.8,5.55,96.4,96.4,0,0,1-19.2,1.8,62.86,62.86,0,0,1-24.45-4.58,53.69,53.69,0,0,1-18.75-12.9,57.83,57.83,0,0,1-12.07-20.1,76.7,76.7,0,0,1-4.27-26.32,108.55,108.55,0,0,1,2.63-23.85,106.54,106.54,0,0,1,7.57-22.2A94.25,94.25,0,0,1,73.91,69.51a82.64,82.64,0,0,1,16.28-15.3,74.79,74.79,0,0,1,19.95-10,73.76,73.76,0,0,1,23.33-3.6A59.15,59.15,0,0,1,154.54,44a47.68,47.68,0,0,1,15.15,8.92,36.31,36.31,0,0,1,9.07,12.23,32.38,32.38,0,0,1,3,13.2,42.93,42.93,0,0,1-4.12,18.9q-4.13,8.55-14.7,15.3t-28.87,11.63q-18.3,4.88-46.5,7.73Zm43.8-67.5a32,32,0,0,0-14,3.08,38.5,38.5,0,0,0-11.62,8.63,55.3,55.3,0,0,0-9,13.27,82.16,82.16,0,0,0-6.07,16.87,245.94,245.94,0,0,0,29.92-5.62Q132,99.51,138.11,96t8.17-7.65a19.33,19.33,0,0,0,2-8.62,12.34,12.34,0,0,0-1-4.65,11.93,11.93,0,0,0-3-4.27,16.68,16.68,0,0,0-5.25-3.15A21,21,0,0,0,131.36,66.36Z"/><path class="cls-1" d="M111.11,199.06a63.39,63.39,0,0,1-24.55-4.59,54.18,54.18,0,0,1-18.84-13A58.36,58.36,0,0,1,55.6,161.32a77.31,77.31,0,0,1-4.29-26.41A109.32,109.32,0,0,1,53.94,111a107.3,107.3,0,0,1,7.59-22.25,94.93,94.93,0,0,1,12.18-19.4A83.26,83.26,0,0,1,90,54a75.37,75.37,0,0,1,20-10.08,74.36,74.36,0,0,1,23.4-3.61,59.68,59.68,0,0,1,21.16,3.47,48.15,48.15,0,0,1,15.23,9A36.72,36.72,0,0,1,179,65.05a32.77,32.77,0,0,1,3,13.3,43.37,43.37,0,0,1-4.15,19c-2.76,5.72-7.74,10.9-14.79,15.4s-16.78,8.42-28.94,11.66-27.69,5.82-46.31,7.71v1.72c0,12,2.57,21.09,7.63,27.06s12.75,9,22.87,9a47.36,47.36,0,0,0,20.52-4.33,41.77,41.77,0,0,0,6.86-4c2-1.48,3.95-2.85,5.71-4.05a44.25,44.25,0,0,1,5.21-3.09,12.55,12.55,0,0,1,5.66-1.3,7.82,7.82,0,0,1,3.64.93,11.23,11.23,0,0,1,3.15,2.45l9.6,11.58-.16.16a158.79,158.79,0,0,1-15.62,13.82,87,87,0,0,1-15.65,9.63,74.22,74.22,0,0,1-16.86,5.57A97.14,97.14,0,0,1,111.11,199.06ZM133.46,40.81a73.87,73.87,0,0,0-23.25,3.59,74.88,74.88,0,0,0-19.88,10A82.78,82.78,0,0,0,74.1,69.66,94.45,94.45,0,0,0,62,89a106.79,106.79,0,0,0-7.56,22.15,108.81,108.81,0,0,0-2.62,23.8,76.81,76.81,0,0,0,4.26,26.24,57.86,57.86,0,0,0,12,20A53.69,53.69,0,0,0,86.76,194a62.9,62.9,0,0,0,24.35,4.56,96.62,96.62,0,0,0,19.15-1.79A73.71,73.71,0,0,0,147,191.23a86.5,86.5,0,0,0,15.55-9.57A158,158,0,0,0,178,168l-9.3-11.22a10.71,10.71,0,0,0-3-2.34,7.33,7.33,0,0,0-3.41-.87,12.06,12.06,0,0,0-5.44,1.25,43.72,43.72,0,0,0-5.15,3.06c-1.76,1.2-3.67,2.56-5.69,4A42.27,42.27,0,0,1,139,166a47.84,47.84,0,0,1-20.73,4.37c-20.57,0-31-12.3-31-36.55v-2.18l.23,0c18.69-1.89,34.32-4.48,46.46-7.72s21.81-7.13,28.81-11.59,11.89-9.57,14.61-15.2a42.88,42.88,0,0,0,4.1-18.79,32.27,32.27,0,0,0-3-13.1,36.23,36.23,0,0,0-9-12.14,47.65,47.65,0,0,0-15.07-8.88A59.17,59.17,0,0,0,133.46,40.81ZM90.38,108.5l.09-.36a82.78,82.78,0,0,1,6.09-16.93,55.81,55.81,0,0,1,9-13.33,38.94,38.94,0,0,1,11.7-8.68,32.41,32.41,0,0,1,14.06-3.1,21.39,21.39,0,0,1,7.82,1.29,17,17,0,0,1,5.33,3.2A12.24,12.24,0,0,1,147.57,75a12.65,12.65,0,0,1,1,4.74,19.66,19.66,0,0,1-2.05,8.74c-1.37,2.78-4.15,5.39-8.27,7.76s-10,4.58-17.53,6.62a247.38,247.38,0,0,1-30,5.63Zm41-41.9a31.91,31.91,0,0,0-13.84,3.05A38.44,38.44,0,0,0,106,78.23a55.32,55.32,0,0,0-9,13.22,82.08,82.08,0,0,0-6,16.47,245.32,245.32,0,0,0,29.53-5.57c7.49-2,13.35-4.24,17.42-6.58s6.75-4.85,8.07-7.54a19.17,19.17,0,0,0,2-8.52,12.16,12.16,0,0,0-1-4.56A11.75,11.75,0,0,0,144.17,71a16.51,16.51,0,0,0-5.17-3.1A20.9,20.9,0,0,0,131.36,66.61Z"/><path class="cls-1" d="M337.91,42.66,262,196.56H231L192.41,42.66h30.45a9.39,9.39,0,0,1,6.22,1.95,8.45,8.45,0,0,1,2.92,5l16,82.2q1.2,7.5,2,14.7t1.2,14.4q4.5-14.4,10.5-29.1l36.75-82.2a12,12,0,0,1,4.13-5,10.58,10.58,0,0,1,6.22-1.95Z"/><path class="cls-1" d="M262.17,196.81h-31.4l0-.19L192.09,42.41h30.77a9.67,9.67,0,0,1,6.38,2,8.73,8.73,0,0,1,3,5.09l16,82.2c.8,5,1.45,9.93,2,14.72.45,4.36.83,8.75,1.11,13.07,2.9-9.16,6.3-18.52,10.11-27.84l36.75-82.21a12.28,12.28,0,0,1,4.21-5.05,10.87,10.87,0,0,1,6.37-2h29.5Zm-31-.5h30.7l75.65-153.4h-28.7a10.38,10.38,0,0,0-6.08,1.9,11.78,11.78,0,0,0-4,4.85l-36.75,82.2c-4,9.73-7.5,19.52-10.49,29.07l-.4,1.29-.08-1.35c-.3-4.74-.7-9.58-1.2-14.39s-1.15-9.72-1.95-14.69l-16-82.19a8.24,8.24,0,0,0-2.84-4.81,9.19,9.19,0,0,0-6.06-1.89H192.73Z"/><path class="cls-1" d="M417,164.46q-10.2,15.75-23,25.05a46.65,46.65,0,0,1-28,9.3,38.8,38.8,0,0,1-16.27-3.45,36.67,36.67,0,0,1-13.2-10.27,50.18,50.18,0,0,1-8.85-17.1,80.58,80.58,0,0,1-3.22-24.07,104.54,104.54,0,0,1,3.45-26.85,105.61,105.61,0,0,1,25.2-45.6,98.37,98.37,0,0,1,44.32-27.23,96.33,96.33,0,0,1,27.38-3.82,145.93,145.93,0,0,1,20.78,1.5,90.5,90.5,0,0,1,20.33,5.4L447.41,196.56H427.76q-7.05,0-9.52-3.52a14.89,14.89,0,0,1-2.48-8.77ZM427.16,67q-2.1-.15-4-.23t-3.68-.07a48.2,48.2,0,0,0-23.1,5.7A58.89,58.89,0,0,0,378,87.73a74.76,74.76,0,0,0-12.15,22.5,82.43,82.43,0,0,0-4.42,27.08q0,16.2,5.1,23.7a16,16,0,0,0,13.95,7.5,20.46,20.46,0,0,0,12.08-4.28,50.55,50.55,0,0,0,11.25-11.7,97.08,97.08,0,0,0,9.75-17.48,168.56,168.56,0,0,0,7.73-21.6Z"/><path class="cls-1" d="M366,199.06a39.22,39.22,0,0,1-16.38-3.47,37.1,37.1,0,0,1-13.29-10.34,50.68,50.68,0,0,1-8.9-17.18,81.2,81.2,0,0,1-3.24-24.15A105.27,105.27,0,0,1,327.62,117a105.85,105.85,0,0,1,25.26-45.71A98.62,98.62,0,0,1,397.31,44a97,97,0,0,1,27.45-3.83,146.87,146.87,0,0,1,20.81,1.5,91.16,91.16,0,0,1,20.38,5.42l.18.07,0,.19L447.63,196.81H427.76c-4.76,0-8-1.22-9.73-3.63a15.2,15.2,0,0,1-2.52-8.92l1.14-18.87c-6.67,10.12-14.26,18.3-22.57,24.33A47.1,47.1,0,0,1,366,199.06Zm58.8-158.4a96.51,96.51,0,0,0-27.3,3.81,98.12,98.12,0,0,0-44.21,27.16,105.36,105.36,0,0,0-25.14,45.49,104.75,104.75,0,0,0-3.44,26.79,80.73,80.73,0,0,0,3.21,24,50.16,50.16,0,0,0,8.81,17,36.58,36.58,0,0,0,13.11,10.21A38.72,38.72,0,0,0,366,198.56a46.61,46.61,0,0,0,27.83-9.25c8.48-6.15,16.21-14.55,23-25l.52-.8L416,184.27a14.7,14.7,0,0,0,2.43,8.62c1.59,2.27,4.73,3.42,9.32,3.42h19.43l18.4-148.84a90.68,90.68,0,0,0-20.09-5.31A146.39,146.39,0,0,0,424.76,40.66Zm-44.25,128.1a16.31,16.31,0,0,1-14.16-7.61c-3.41-5-5.14-13-5.14-23.84a83,83,0,0,1,4.44-27.16,75.37,75.37,0,0,1,12.19-22.57,59.42,59.42,0,0,1,18.45-15.44,48.67,48.67,0,0,1,23.22-5.73c1.17,0,2.41,0,3.69.07s2.58.13,4,.23l.26,0,0,.26-5.85,46.5a169.21,169.21,0,0,1-7.75,21.67A97.74,97.74,0,0,1,404,152.68a51,51,0,0,1-11.31,11.76A20.8,20.8,0,0,1,380.51,168.76Zm39-101.85a48.17,48.17,0,0,0-23,5.67,58.91,58.91,0,0,0-18.3,15.31,74.89,74.89,0,0,0-12.11,22.43,82.56,82.56,0,0,0-4.41,27c0,10.7,1.7,18.63,5.06,23.56a15.83,15.83,0,0,0,13.74,7.39A20.31,20.31,0,0,0,392.43,164a50.55,50.55,0,0,0,11.19-11.64A97.35,97.35,0,0,0,413.35,135a169.15,169.15,0,0,0,7.71-21.57l5.81-46.2c-1.3-.09-2.55-.16-3.7-.21S420.67,66.91,419.51,66.91Z"/><path class="cls-1" d="M527.21,74.46q11.7-17.25,26-25.73a56.8,56.8,0,0,1,29.4-8.47,37.45,37.45,0,0,1,17.25,3.9,33,33,0,0,1,12.6,11.32,48.75,48.75,0,0,1,7,18.3,80.18,80.18,0,0,1,.23,24.82l-11.55,98H571l11.55-98q1.95-15-1.5-21.52t-12.6-6.52a26.2,26.2,0,0,0-12.6,3.52,49.1,49.1,0,0,0-12.45,10.05,80.57,80.57,0,0,0-11,15.6,94.23,94.23,0,0,0-8.17,20.33l-8.55,76.5h-37l18.45-154H515.8q5.85,0,9.08,2.85t3.23,9.15Z"/><path class="cls-1" d="M608.28,196.81H570.72l0-.28,11.55-98c1.29-9.9.79-17.1-1.47-21.38s-6.41-6.39-12.38-6.39A26.07,26.07,0,0,0,556,74.3a49.08,49.08,0,0,0-12.39,10,80.7,80.7,0,0,0-11,15.55,94.42,94.42,0,0,0-8.15,20.27l-8.57,76.68H478.32l0-.28L496.83,42.26h19c3.94,0,7.05,1,9.24,2.91s3.31,5.08,3.31,9.34l-.86,19.08C535.16,62.47,543.74,54,553,48.52A57.3,57.3,0,0,1,582.55,40a37.85,37.85,0,0,1,17.36,3.93,33.38,33.38,0,0,1,12.7,11.41,49.22,49.22,0,0,1,7,18.39,80.83,80.83,0,0,1,.23,24.9Zm-37-.5h36.55l11.53-97.73a80.33,80.33,0,0,0-.22-24.75,48.73,48.73,0,0,0-6.94-18.21,32.89,32.89,0,0,0-12.51-11.24,37.37,37.37,0,0,0-17.14-3.87,56.81,56.81,0,0,0-29.27,8.44c-9.42,5.6-18.13,14.23-25.87,25.65l-.5.73.94-20.83c0-4.09-1.06-7.11-3.14-9s-5.09-2.79-8.91-2.79H497.28L478.89,196.31h36.54L524,120a94.83,94.83,0,0,1,8.2-20.42A81.2,81.2,0,0,1,543.22,84a49.57,49.57,0,0,1,12.51-10.1,26.56,26.56,0,0,1,12.72-3.56c6.17,0,10.48,2.24,12.82,6.66s2.83,11.67,1.53,21.67Z"/><path class="cls-1" d="M79.6,277.65a48.19,48.19,0,0,1,15.27-11.79,39,39,0,0,1,16.71-3.79,27.43,27.43,0,0,1,12.15,2.67,24.26,24.26,0,0,1,9.17,7.79,32.53,32.53,0,0,1,5.23,12.66,53.32,53.32,0,0,1,.31,17.27l-8,67.55H98.66l8-67.55a40,40,0,0,0,.31-7.28,12.84,12.84,0,0,0-1.13-4.82,5.45,5.45,0,0,0-2.56-2.61,9.37,9.37,0,0,0-4-.77,14,14,0,0,0-6.66,1.9,26.61,26.61,0,0,0-6.71,5.38,45.15,45.15,0,0,0-6,8.46,54.51,54.51,0,0,0-4.66,11L68.32,370H36.55L55.2,216.56H87Z"/><path class="cls-1" d="M212.13,352.27a53.76,53.76,0,0,1-14.5,14.2,32,32,0,0,1-17.68,5.18,27.6,27.6,0,0,1-11.07-2.31,26.46,26.46,0,0,1-9.43-7,34.72,34.72,0,0,1-6.56-11.89,53.08,53.08,0,0,1-2.46-17.07A72,72,0,0,1,155.7,306a70.06,70.06,0,0,1,14.76-22.7A71.05,71.05,0,0,1,193,267.81a70.1,70.1,0,0,1,28.6-5.74,117.89,117.89,0,0,1,15.38,1,76.38,76.38,0,0,1,15.38,3.69L239.39,370h-17a13.94,13.94,0,0,1-5-.77,7.94,7.94,0,0,1-3.18-2.1,7.41,7.41,0,0,1-1.64-3.18,16.45,16.45,0,0,1-.46-4ZM217,283.9a29.23,29.23,0,0,0-14.2,3.48,34.77,34.77,0,0,0-11,9.48,44.75,44.75,0,0,0-7.12,13.94,55.94,55.94,0,0,0-2.51,17,39.63,39.63,0,0,0,.82,8.71,18.8,18.8,0,0,0,2.2,5.79,8.94,8.94,0,0,0,3.28,3.23,8.58,8.58,0,0,0,4.15,1,10.76,10.76,0,0,0,6.77-2.61,29.49,29.49,0,0,0,6.2-7.12A63.19,63.19,0,0,0,211,326.23a98.67,98.67,0,0,0,4.2-12.92L219,283.9Z"/><path class="cls-1" d="M299.15,285.64a67.54,67.54,0,0,1,8.3-11.79,38.09,38.09,0,0,1,9.07-7.64,22,22,0,0,1,9.53-3.08,19.78,19.78,0,0,1,9.79,1.9l-5.74,29.42a25.52,25.52,0,0,0-10.92-2.25,16.05,16.05,0,0,0-9.33,3.48,29.38,29.38,0,0,0-7.69,9.84,73.81,73.81,0,0,0-5.89,16.81L290.54,370H259.38l12.92-106.29h16.4q4.92,0,7.69,2.31t2.77,7.53Z"/><path class="cls-1" d="M375.51,371.64a46.08,46.08,0,0,1-16.66-3A38,38,0,0,1,345.43,360a39.87,39.87,0,0,1-8.92-14,53.06,53.06,0,0,1-3.23-19.22,70.27,70.27,0,0,1,4.66-26,65.32,65.32,0,0,1,12.56-20.45,57.26,57.26,0,0,1,18.3-13.43,51.48,51.48,0,0,1,21.88-4.82,45.67,45.67,0,0,1,16.6,3,38.16,38.16,0,0,1,13.38,8.66,40.49,40.49,0,0,1,9,14A52.33,52.33,0,0,1,432.91,307a69.71,69.71,0,0,1-4.66,25.78,66,66,0,0,1-12.56,20.5,57.56,57.56,0,0,1-18.3,13.53A51,51,0,0,1,375.51,371.64Zm2.87-23.58a15.24,15.24,0,0,0,9.53-3.23A26.17,26.17,0,0,0,395,336a51.06,51.06,0,0,0,4.51-13,75.67,75.67,0,0,0,1.59-15.84q0-11.58-3.13-16.55t-10.2-5a15.24,15.24,0,0,0-9.53,3.23,26.3,26.3,0,0,0-7.12,8.76,50.15,50.15,0,0,0-4.51,13,76.29,76.29,0,0,0-1.59,15.89q0,11.38,3.13,16.45T378.38,348.07Z"/><path class="cls-1" d="M440.7,370l18.66-153.44h31.37L472.07,370Z"/><path class="cls-1" d="M603.57,216.56,584.51,370h-17a13.93,13.93,0,0,1-5-.77,7.94,7.94,0,0,1-3.18-2.1A7.42,7.42,0,0,1,557.7,364a16.45,16.45,0,0,1-.46-4V351a60.18,60.18,0,0,1-16.09,15.12,34.92,34.92,0,0,1-18.76,5.48,30.38,30.38,0,0,1-12-2.31,23.88,23.88,0,0,1-9.38-7.23,35.61,35.61,0,0,1-6.15-12.56,66.53,66.53,0,0,1-2.2-18.3,82.65,82.65,0,0,1,1.95-18A83.54,83.54,0,0,1,500,296.82a74.5,74.5,0,0,1,8.3-14.09,59,59,0,0,1,10.61-11,48.92,48.92,0,0,1,12.25-7.12,35.84,35.84,0,0,1,13.32-2.56,30,30,0,0,1,21.12,8l6.77-53.5Zm-40.38,73.29a17.29,17.29,0,0,0-6.61-3.43,26.81,26.81,0,0,0-6.92-1,16.08,16.08,0,0,0-10.2,3.69,32.47,32.47,0,0,0-8,9.69,54,54,0,0,0-5.28,13.68,65.17,65.17,0,0,0-1.9,15.68q0,10.15,3,14.71a9,9,0,0,0,7.89,4.56,12,12,0,0,0,6.82-2.46,31.92,31.92,0,0,0,6.87-6.76,62.41,62.41,0,0,0,6.25-10.1,79.48,79.48,0,0,0,5-12.45Z"/><path class="cls-1" d="M117.57,391.47,102.32,514.22H88.71a11.15,11.15,0,0,1-4-.62,6.35,6.35,0,0,1-2.54-1.68,5.93,5.93,0,0,1-1.31-2.54,13.15,13.15,0,0,1-.37-3.2v-7.13a48.15,48.15,0,0,1-12.87,12.09,27.93,27.93,0,0,1-15,4.39A24.3,24.3,0,0,1,43,513.69a19.11,19.11,0,0,1-7.5-5.78,28.5,28.5,0,0,1-4.92-10,53.21,53.21,0,0,1-1.76-14.64,66.11,66.11,0,0,1,1.56-14.39,66.84,66.84,0,0,1,4.35-13.16,59.64,59.64,0,0,1,6.64-11.28,47.18,47.18,0,0,1,8.49-8.77,39.17,39.17,0,0,1,9.8-5.7,28.68,28.68,0,0,1,10.66-2,24,24,0,0,1,16.89,6.4l5.41-42.8ZM85.26,450.1A13.85,13.85,0,0,0,80,447.35a21.46,21.46,0,0,0-5.53-.78,12.86,12.86,0,0,0-8.16,3,26,26,0,0,0-6.44,7.75,43.27,43.27,0,0,0-4.22,10.95,52.15,52.15,0,0,0-1.52,12.55q0,8.12,2.38,11.77a7.24,7.24,0,0,0,6.31,3.65,9.6,9.6,0,0,0,5.45-2,25.54,25.54,0,0,0,5.49-5.41,49.9,49.9,0,0,0,5-8.08,63.61,63.61,0,0,0,4-10Z"/><path class="cls-1" d="M52.63,516a24.91,24.91,0,0,1-9.79-1.89,19.68,19.68,0,0,1-7.7-5.93,29.12,29.12,0,0,1-5-10.22,54,54,0,0,1-1.78-14.78,66.94,66.94,0,0,1,1.57-14.5,67.67,67.67,0,0,1,4.38-13.26A60.44,60.44,0,0,1,41,444.1a47.91,47.91,0,0,1,8.58-8.87,39.85,39.85,0,0,1,9.92-5.77,29.31,29.31,0,0,1,10.84-2.08,24.51,24.51,0,0,1,16.51,5.89L92.2,391h25.94L102.76,514.72H88.71a11.68,11.68,0,0,1-4.16-.65,6.87,6.87,0,0,1-2.74-1.82,6.45,6.45,0,0,1-1.42-2.75,13.73,13.73,0,0,1-.38-3.32v-5.67A48,48,0,0,1,67.9,511.57,28.55,28.55,0,0,1,52.63,516Zm17.71-87.66a28.31,28.31,0,0,0-10.48,2A38.85,38.85,0,0,0,50.19,436a46.88,46.88,0,0,0-8.4,8.68,59.41,59.41,0,0,0-6.59,11.18,66.63,66.63,0,0,0-4.31,13.06,65.9,65.9,0,0,0-1.55,14.28,53,53,0,0,0,1.74,14.5,28.15,28.15,0,0,0,4.83,9.87,18.71,18.71,0,0,0,7.31,5.63,23.91,23.91,0,0,0,9.4,1.81,27.56,27.56,0,0,0,14.74-4.31,47.86,47.86,0,0,0,12.74-12l.9-1.19v8.63a12.73,12.73,0,0,0,.35,3.08,5.46,5.46,0,0,0,1.2,2.33,5.89,5.89,0,0,0,2.35,1.55,10.7,10.7,0,0,0,3.8.58h13.17L117,392H93.08L87.61,435.3l-.71-.66a23.52,23.52,0,0,0-16.55-6.26Zm-7.54,68.31a7.74,7.74,0,0,1-6.73-3.87c-1.63-2.5-2.46-6.55-2.46-12a52.89,52.89,0,0,1,1.53-12.67A44,44,0,0,1,59.41,457a26.64,26.64,0,0,1,6.56-7.9,13.41,13.41,0,0,1,8.47-3.06,22.07,22.07,0,0,1,5.66.79,14.43,14.43,0,0,1,5.48,2.84l.21.17-2.58,20.94a64,64,0,0,1-4,10.13,50.6,50.6,0,0,1-5.05,8.16,26.14,26.14,0,0,1-5.6,5.52A10.13,10.13,0,0,1,62.79,496.68Zm11.64-49.61a12.44,12.44,0,0,0-7.85,2.84,25.64,25.64,0,0,0-6.31,7.6,43,43,0,0,0-4.17,10.82,51.9,51.9,0,0,0-1.5,12.43c0,5.29.77,9.16,2.3,11.49a6.71,6.71,0,0,0,5.9,3.42A9.16,9.16,0,0,0,68,493.8a25.18,25.18,0,0,0,5.38-5.31,49.67,49.67,0,0,0,5-8,63.37,63.37,0,0,0,3.95-9.88l2.49-20.3a13.39,13.39,0,0,0-4.89-2.48A21,21,0,0,0,74.44,447.07Z"/><path class="cls-1" d="M152.91,515.53a36.85,36.85,0,0,1-13.33-2.38,30.42,30.42,0,0,1-10.74-6.93A31.89,31.89,0,0,1,121.71,495a42.45,42.45,0,0,1-2.58-15.37,56.21,56.21,0,0,1,3.73-20.79,52.26,52.26,0,0,1,10-16.36,45.81,45.81,0,0,1,14.64-10.74A41.19,41.19,0,0,1,165,427.88a36.53,36.53,0,0,1,13.28,2.38,30.52,30.52,0,0,1,10.7,6.93,32.39,32.39,0,0,1,7.17,11.23,41.87,41.87,0,0,1,2.62,15.38,55.79,55.79,0,0,1-3.73,20.62,52.82,52.82,0,0,1-10,16.4,46,46,0,0,1-14.64,10.82A40.84,40.84,0,0,1,152.91,515.53Zm2.3-18.86a12.2,12.2,0,0,0,7.63-2.58,20.93,20.93,0,0,0,5.7-7.05,40.89,40.89,0,0,0,3.61-10.41A60.55,60.55,0,0,0,173.41,464q0-9.27-2.5-13.24t-8.16-4a12.18,12.18,0,0,0-7.63,2.58,21,21,0,0,0-5.7,7,40.13,40.13,0,0,0-3.61,10.41,61,61,0,0,0-1.27,12.71q0,9.1,2.5,13.16T155.21,496.67Z"/><path class="cls-1" d="M152.91,516a37.52,37.52,0,0,1-13.5-2.41,31.05,31.05,0,0,1-10.92-7,32.53,32.53,0,0,1-7.25-11.41,43.14,43.14,0,0,1-2.62-15.56,57,57,0,0,1,3.77-21,53,53,0,0,1,10.14-16.51,46.53,46.53,0,0,1,14.8-10.86,41.88,41.88,0,0,1,17.72-3.9,37.2,37.2,0,0,1,13.46,2.41,31.15,31.15,0,0,1,10.87,7,33,33,0,0,1,7.29,11.41,42.55,42.55,0,0,1,2.66,15.56,56.55,56.55,0,0,1-3.77,20.81,53.57,53.57,0,0,1-10.14,16.55,46.75,46.75,0,0,1-14.79,10.94A41.52,41.52,0,0,1,152.91,516ZM165,428.38a40.88,40.88,0,0,0-17.3,3.81,45.51,45.51,0,0,0-14.48,10.63A52,52,0,0,0,123.32,459a56,56,0,0,0-3.7,20.6,42.15,42.15,0,0,0,2.55,15.19,31.54,31.54,0,0,0,7,11.06,30.07,30.07,0,0,0,10.57,6.82A36.53,36.53,0,0,0,152.91,515a40.52,40.52,0,0,0,17.29-3.85,45.74,45.74,0,0,0,14.48-10.71,52.55,52.55,0,0,0,9.95-16.25,55.55,55.55,0,0,0,3.7-20.44,41.57,41.57,0,0,0-2.59-15.19,32,32,0,0,0-7.06-11.06,30.17,30.17,0,0,0-10.53-6.82A36.2,36.2,0,0,0,165,428.38Zm-9.84,68.8c-3.94,0-6.83-1.45-8.58-4.3S144,485.59,144,479.45a61.83,61.83,0,0,1,1.28-12.81A40.83,40.83,0,0,1,149,456.1a21.62,21.62,0,0,1,5.84-7.17,12.73,12.73,0,0,1,7.93-2.69c3.94,0,6.82,1.42,8.58,4.21s2.58,7.27,2.58,13.51a61.3,61.3,0,0,1-1.28,12.77A41.55,41.55,0,0,1,169,487.27a21.52,21.52,0,0,1-5.84,7.22A12.74,12.74,0,0,1,155.21,497.17Zm7.54-49.94a11.75,11.75,0,0,0-7.32,2.48,20.64,20.64,0,0,0-5.56,6.85,39.81,39.81,0,0,0-3.56,10.28A60.83,60.83,0,0,0,145,479.45c0,5.95.82,10.29,2.43,12.9s4.11,3.82,7.73,3.82a11.76,11.76,0,0,0,7.32-2.48,20.54,20.54,0,0,0,5.56-6.89,40.6,40.6,0,0,0,3.56-10.29A60.34,60.34,0,0,0,172.91,464c0-6.05-.82-10.42-2.42-13S166.37,447.24,162.75,447.24Z"/><path class="cls-1" d="M210.89,495.85v-1.39q0-.82.12-2.34t.41-4q.29-2.5.78-6.6l4.35-34.77h-6.81a3.7,3.7,0,0,1-2.87-1.27,4.28,4.28,0,0,1-.74-3.73l1.15-9.92,12.87-2.62,7.13-20.75a5.43,5.43,0,0,1,5.58-3.94h13.78l-3.12,24.85h19l-2.13,17.38h-19l-4.1,33.37q-.41,3.36-.66,5.29t-.37,3c-.08.68-.12,1.15-.12,1.39v.45a6.82,6.82,0,0,0,1.11,4,3.94,3.94,0,0,0,3.49,1.6,7,7,0,0,0,2.17-.29,8.71,8.71,0,0,0,1.52-.66q.66-.37,1.23-.66a2.9,2.9,0,0,1,1.31-.29,2.3,2.3,0,0,1,1.68.53,6.64,6.64,0,0,1,1.11,1.68l5.58,12.05a38,38,0,0,1-10.91,5.53,38.6,38.6,0,0,1-11.73,1.85,27.13,27.13,0,0,1-8.86-1.35,19.1,19.1,0,0,1-6.76-3.94,18.33,18.33,0,0,1-4.43-6.19A22,22,0,0,1,210.89,495.85Z"/><path class="cls-1" d="M232.7,516a27.76,27.76,0,0,1-9-1.38,19.67,19.67,0,0,1-6.94-4,18.91,18.91,0,0,1-4.55-6.36,22.58,22.58,0,0,1-1.81-8.38v-1.41c0-.56,0-1.34.12-2.38s.22-2.37.41-4,.45-3.87.78-6.6L216,447.24h-6.24a4.2,4.2,0,0,1-3.24-1.44,4.76,4.76,0,0,1-.86-4.15l1.19-10.26,12.95-2.64,7-20.47a5.91,5.91,0,0,1,6-4.27h14.34l-3.12,24.85h19l-2.25,18.38h-19l-4,32.93q-.41,3.36-.66,5.29t-.37,2.95c-.08.66-.12,1.11-.12,1.33v.45a6.37,6.37,0,0,0,1,3.69,3.45,3.45,0,0,0,3.07,1.38,6.53,6.53,0,0,0,2-.26,8.28,8.28,0,0,0,1.43-.62q.67-.37,1.25-.67a3.4,3.4,0,0,1,1.54-.34,2.78,2.78,0,0,1,2,.68,7,7,0,0,1,1.2,1.81L256,508.32l-.33.24a38.69,38.69,0,0,1-11,5.61A39.29,39.29,0,0,1,232.7,516Zm-21.31-20.19a21.59,21.59,0,0,0,1.72,8,17.93,17.93,0,0,0,4.31,6,18.69,18.69,0,0,0,6.59,3.83A26.77,26.77,0,0,0,232.7,515a38.29,38.29,0,0,0,11.57-1.82A37.67,37.67,0,0,0,254.71,508l-5.4-11.68a6.18,6.18,0,0,0-1-1.54,1.86,1.86,0,0,0-1.33-.39,2.42,2.42,0,0,0-1.09.23q-.56.28-1.21.64a9.22,9.22,0,0,1-1.6.7,7.5,7.5,0,0,1-2.33.31,4.43,4.43,0,0,1-3.9-1.81,7.34,7.34,0,0,1-1.2-4.26v-.45a14.3,14.3,0,0,1,.13-1.45q.12-1,.37-3t.66-5.29L241,446.24h19l2-16.38H243L246.07,405H232.86a4.94,4.94,0,0,0-5.1,3.6l-7.23,21-12.8,2.61-1.11,9.56a3.86,3.86,0,0,0,.61,3.34,3.2,3.2,0,0,0,2.5,1.11h7.37l-4.42,35.33q-.49,4.1-.78,6.6c-.19,1.66-.33,3-.41,4s-.12,1.77-.12,2.3Z"/><path class="cls-1" d="M358,506.92a36.79,36.79,0,0,1-7.79,5,35.63,35.63,0,0,1-8.57,2.75,54.17,54.17,0,0,1-10,.86A34.11,34.11,0,0,1,318.14,513a28.66,28.66,0,0,1-10.21-7.22,32.44,32.44,0,0,1-6.52-11.32,45.5,45.5,0,0,1-2.3-14.92,57.3,57.3,0,0,1,3.4-19.76,51.86,51.86,0,0,1,9.51-16.4,45.93,45.93,0,0,1,14.47-11.19A40.83,40.83,0,0,1,344.87,428,33.78,33.78,0,0,1,359.51,431a30.63,30.63,0,0,1,10.95,9.14l-8.2,9.43a10.79,10.79,0,0,1-2.05,1.6,4.8,4.8,0,0,1-2.54.7,5.05,5.05,0,0,1-2.75-.7q-1.11-.7-2.42-1.48a19.74,19.74,0,0,0-3.2-1.48,14.48,14.48,0,0,0-4.92-.7,14,14,0,0,0-7.34,2.17,21,21,0,0,0-6.35,6.27A34.33,34.33,0,0,0,326.22,466a50.4,50.4,0,0,0-1.68,13.61,25,25,0,0,0,1,7.42,15.34,15.34,0,0,0,2.71,5.25,11.39,11.39,0,0,0,4,3.16,11.53,11.53,0,0,0,4.92,1.07,15.43,15.43,0,0,0,6.36-1.11,24.56,24.56,0,0,0,4.22-2.42l3.36-2.42a6.35,6.35,0,0,1,3.77-1.11,5,5,0,0,1,2.38.62,8.73,8.73,0,0,1,2,1.52l6.56,7.71A77.74,77.74,0,0,1,358,506.92Z"/><path class="cls-1" d="M331.59,516a34.74,34.74,0,0,1-13.64-2.58,29.29,29.29,0,0,1-10.38-7.34,33.09,33.09,0,0,1-6.62-11.49,46.2,46.2,0,0,1-2.32-15.09A58.06,58.06,0,0,1,302,459.6a52.59,52.59,0,0,1,9.6-16.56,46.63,46.63,0,0,1,14.63-11.31,41.5,41.5,0,0,1,18.59-4.19,34.42,34.42,0,0,1,14.85,3,31.26,31.26,0,0,1,11.13,9.29l.25.32-8.47,9.74a11.36,11.36,0,0,1-2.17,1.7,5.32,5.32,0,0,1-2.8.77,5.56,5.56,0,0,1-3-.77q-1.1-.69-2.41-1.47a19.25,19.25,0,0,0-3.12-1.44,14.08,14.08,0,0,0-4.75-.67,13.53,13.53,0,0,0-7.08,2.1,20.6,20.6,0,0,0-6.2,6.13,34,34,0,0,0-4.4,9.94A50.14,50.14,0,0,0,325,479.62a24.62,24.62,0,0,0,1,7.27,14.92,14.92,0,0,0,2.61,5.08,11,11,0,0,0,3.84,3,11.1,11.1,0,0,0,4.71,1,15,15,0,0,0,6.15-1.06,24.2,24.2,0,0,0,4.14-2.37l3.37-2.42a6.86,6.86,0,0,1,4.06-1.2,5.49,5.49,0,0,1,2.61.67,9.26,9.26,0,0,1,2.17,1.6l6.87,8.07-.3.33a78.56,78.56,0,0,1-7.92,7.68h0a37.45,37.45,0,0,1-7.9,5.07,36.29,36.29,0,0,1-8.69,2.79A54.92,54.92,0,0,1,331.59,516Zm13.28-87.49a40.52,40.52,0,0,0-18.15,4.09,45.63,45.63,0,0,0-14.32,11.07A51.61,51.61,0,0,0,303,459.94a57.07,57.07,0,0,0-3.37,19.59,45.23,45.23,0,0,0,2.27,14.76,32.09,32.09,0,0,0,6.42,11.14,28.29,28.29,0,0,0,10,7.09,33.77,33.77,0,0,0,13.25,2.5,53.94,53.94,0,0,0,10-.85,35.29,35.29,0,0,0,8.45-2.71,36.48,36.48,0,0,0,7.68-4.94h0a76.59,76.59,0,0,0,7.52-7.25l-6.27-7.37a8.26,8.26,0,0,0-1.91-1.4,4.51,4.51,0,0,0-2.14-.56,5.89,5.89,0,0,0-3.48,1L348,493.39a25.13,25.13,0,0,1-4.31,2.47,16,16,0,0,1-6.56,1.15A12.08,12.08,0,0,1,332,495.9a11.91,11.91,0,0,1-4.19-3.29,15.89,15.89,0,0,1-2.8-5.42,25.63,25.63,0,0,1-1-7.57,51.14,51.14,0,0,1,1.7-13.75,35,35,0,0,1,4.54-10.23,21.55,21.55,0,0,1,6.51-6.42,14.51,14.51,0,0,1,7.6-2.25,15,15,0,0,1,5.09.73,20.21,20.21,0,0,1,3.28,1.51q1.32.78,2.43,1.48a4.59,4.59,0,0,0,2.48.62,4.27,4.27,0,0,0,2.28-.62,10.34,10.34,0,0,0,2-1.53l7.9-9.09a30.08,30.08,0,0,0-10.51-8.67A33.44,33.44,0,0,0,344.87,428.54Z"/><path class="cls-1" d="M405.23,515.53a36.85,36.85,0,0,1-13.33-2.38,30.42,30.42,0,0,1-10.74-6.93A31.88,31.88,0,0,1,374,495a42.44,42.44,0,0,1-2.58-15.37,56.21,56.21,0,0,1,3.73-20.79,52.27,52.27,0,0,1,10-16.36,45.8,45.8,0,0,1,14.64-10.74,41.19,41.19,0,0,1,17.51-3.85,36.53,36.53,0,0,1,13.28,2.38,30.52,30.52,0,0,1,10.7,6.93,32.4,32.4,0,0,1,7.17,11.23,41.87,41.87,0,0,1,2.62,15.38,55.78,55.78,0,0,1-3.73,20.62,52.81,52.81,0,0,1-10,16.4,46,46,0,0,1-14.64,10.82A40.84,40.84,0,0,1,405.23,515.53Zm2.3-18.86a12.2,12.2,0,0,0,7.63-2.58,20.94,20.94,0,0,0,5.7-7.05,40.87,40.87,0,0,0,3.61-10.41A60.55,60.55,0,0,0,425.73,464q0-9.27-2.5-13.24t-8.16-4a12.18,12.18,0,0,0-7.63,2.58,21,21,0,0,0-5.7,7,40.15,40.15,0,0,0-3.61,10.41,61.08,61.08,0,0,0-1.27,12.71q0,9.1,2.5,13.16T407.52,496.67Z"/><path class="cls-1" d="M405.23,516a37.53,37.53,0,0,1-13.5-2.41,31.05,31.05,0,0,1-10.92-7,32.53,32.53,0,0,1-7.25-11.41,43.15,43.15,0,0,1-2.62-15.56,57,57,0,0,1,3.77-21,53,53,0,0,1,10.14-16.51,46.52,46.52,0,0,1,14.8-10.86,41.89,41.89,0,0,1,17.72-3.9,37.22,37.22,0,0,1,13.46,2.41,31.18,31.18,0,0,1,10.87,7A33.05,33.05,0,0,1,449,448.23a42.56,42.56,0,0,1,2.66,15.56,56.54,56.54,0,0,1-3.77,20.81,53.55,53.55,0,0,1-10.14,16.55,46.73,46.73,0,0,1-14.79,10.94A41.51,41.51,0,0,1,405.23,516Zm12.14-87.66a40.88,40.88,0,0,0-17.3,3.81,45.53,45.53,0,0,0-14.48,10.63A52,52,0,0,0,375.64,459a56,56,0,0,0-3.7,20.6,42.12,42.12,0,0,0,2.55,15.19,31.51,31.51,0,0,0,7,11.06,30.07,30.07,0,0,0,10.57,6.82A36.52,36.52,0,0,0,405.23,515a40.52,40.52,0,0,0,17.29-3.85A45.74,45.74,0,0,0,437,500.48,52.57,52.57,0,0,0,447,484.23a55.55,55.55,0,0,0,3.7-20.44,41.56,41.56,0,0,0-2.59-15.19A32.06,32.06,0,0,0,441,437.54a30.16,30.16,0,0,0-10.53-6.82A36.2,36.2,0,0,0,417.36,428.38Zm-9.84,68.8c-3.94,0-6.83-1.45-8.58-4.3s-2.58-7.29-2.58-13.42a61.84,61.84,0,0,1,1.28-12.81,40.85,40.85,0,0,1,3.66-10.54,21.62,21.62,0,0,1,5.84-7.17,12.73,12.73,0,0,1,7.93-2.69c3.94,0,6.82,1.42,8.58,4.21s2.58,7.27,2.58,13.51a61.36,61.36,0,0,1-1.28,12.77,41.6,41.6,0,0,1-3.65,10.54,21.53,21.53,0,0,1-5.84,7.22A12.74,12.74,0,0,1,407.52,497.17Zm7.54-49.94a11.74,11.74,0,0,0-7.32,2.48,20.62,20.62,0,0,0-5.56,6.85,39.84,39.84,0,0,0-3.56,10.28,60.86,60.86,0,0,0-1.26,12.61c0,5.95.82,10.29,2.43,12.9s4.11,3.82,7.73,3.82a11.76,11.76,0,0,0,7.32-2.48,20.54,20.54,0,0,0,5.56-6.89A40.54,40.54,0,0,0,424,476.52,60.29,60.29,0,0,0,425.23,464c0-6-.82-10.42-2.42-13S418.69,447.24,415.07,447.24Z"/><path class="cls-1" d="M457.38,514.22l10.33-85h13.12A9.33,9.33,0,0,1,487,431q2.21,1.84,2.21,6v5a39.49,39.49,0,0,1,11.4-10.7,24.57,24.57,0,0,1,12.55-3.49,16.38,16.38,0,0,1,12,4.67q4.75,4.67,6.07,13.61,5.66-9.43,12.38-13.86a27,27,0,0,1,15.17-4.43,21.16,21.16,0,0,1,9.59,2.13,18.37,18.37,0,0,1,7.05,6.23,26.25,26.25,0,0,1,3.9,10.13,45.38,45.38,0,0,1,.12,13.82l-6.4,54H547.91l6.4-54a35.24,35.24,0,0,0,.29-5.82,11,11,0,0,0-.74-3.77,4,4,0,0,0-1.76-2,5.66,5.66,0,0,0-2.71-.62,9.6,9.6,0,0,0-4.88,1.35,16.29,16.29,0,0,0-4.43,3.94,30.66,30.66,0,0,0-3.81,6.23,55.26,55.26,0,0,0-3,8.16l-5.49,46.58H502.64l6.4-54a35.13,35.13,0,0,0,.29-5.82,11,11,0,0,0-.74-3.77,4,4,0,0,0-1.76-2,5.65,5.65,0,0,0-2.71-.62,9.6,9.6,0,0,0-4.92,1.39,16.41,16.41,0,0,0-4.47,4,31,31,0,0,0-3.81,6.36,57.6,57.6,0,0,0-3,8.32l-5.58,46.17Z"/><path class="cls-1" d="M573.44,514.72h-26.1l6.46-54.6a35,35,0,0,0,.28-5.74,10.54,10.54,0,0,0-.7-3.6,3.5,3.5,0,0,0-1.54-1.77,5.2,5.2,0,0,0-2.47-.56,9.14,9.14,0,0,0-4.63,1.29,15.86,15.86,0,0,0-4.29,3.82,30.33,30.33,0,0,0-3.75,6.13,55,55,0,0,0-3,8.08l-5.53,46.94h-26.1l6.46-54.6a34.86,34.86,0,0,0,.28-5.74,10.55,10.55,0,0,0-.7-3.6,3.55,3.55,0,0,0-1.54-1.77,5.19,5.19,0,0,0-2.47-.56,9.15,9.15,0,0,0-4.67,1.33,16,16,0,0,0-4.33,3.9,30.74,30.74,0,0,0-3.75,6.25,57.4,57.4,0,0,0-3,8.25l-5.61,46.53H456.81l10.45-86h13.56a9.85,9.85,0,0,1,6.47,2c1.59,1.32,2.39,3.48,2.39,6.41v3.53a38.88,38.88,0,0,1,10.65-9.66,25.17,25.17,0,0,1,12.8-3.55,16.94,16.94,0,0,1,12.32,4.82c3,2.94,5,7.17,6,12.56,3.61-5.75,7.58-10.07,11.83-12.87a27.58,27.58,0,0,1,15.45-4.51,21.76,21.76,0,0,1,9.82,2.18,19,19,0,0,1,7.24,6.4,26.88,26.88,0,0,1,4,10.32,46.07,46.07,0,0,1,.13,14Zm-25-1h24.08l6.34-53.6a45.13,45.13,0,0,0-.12-13.67,25.88,25.88,0,0,0-3.82-9.94,18,18,0,0,0-6.86-6.07,20.76,20.76,0,0,0-9.37-2.08,26.59,26.59,0,0,0-14.89,4.35c-4.4,2.9-8.51,7.5-12.23,13.7l-.72,1.2-.2-1.38c-.85-5.82-2.85-10.3-5.92-13.33a16,16,0,0,0-11.62-4.53,24.19,24.19,0,0,0-12.29,3.42,39.18,39.18,0,0,0-11.25,10.57l-.9,1.2v-6.5c0-2.62-.68-4.52-2-5.64a8.89,8.89,0,0,0-5.83-1.73H468.15l-10.21,84h23.92L487.39,468a57.75,57.75,0,0,1,3.08-8.47,31.66,31.66,0,0,1,3.88-6.46,17,17,0,0,1,4.61-4.14,10.14,10.14,0,0,1,5.17-1.46,6.16,6.16,0,0,1,2.94.67,4.53,4.53,0,0,1,2,2.25,11.49,11.49,0,0,1,.78,3.95,35.82,35.82,0,0,1-.29,5.91l-6.33,53.48h24.08l5.44-46.13a55.46,55.46,0,0,1,3.08-8.31,31.31,31.31,0,0,1,3.88-6.33,16.86,16.86,0,0,1,4.57-4.05,10.13,10.13,0,0,1,5.13-1.42,6.17,6.17,0,0,1,2.94.67,4.52,4.52,0,0,1,2,2.25,11.45,11.45,0,0,1,.78,3.95,35.85,35.85,0,0,1-.29,5.91Z"/></svg>